<svg xmlns="http://www.w3.org/2000/svg" version="1.1" xmlns:xlink="http://www.w3.org/1999/xlink" xmlns:svgjs="http://svgjs.dev/svgjs" viewBox="0 0 2400 800" opacity="0.62"><defs><linearGradient x1="50%" y1="0%" x2="50%" y2="100%" id="sssurf-grad"><stop stop-color="hsl(208, 77%, 50%)" stop-opacity="1" offset="0%"></stop><stop stop-color="hsl(208, 74%, 93%)" stop-opacity="1" offset="100%"></stop></linearGradient></defs><g fill="url(#sssurf-grad)" transform="matrix(1,0,0,1,2.0377197265625,241.6512222290039)"><path d="M-10,10C117.08333333333334,15.416666666666666,347.9166666666667,42.041666666666664,600,36C852.0833333333333,29.958333333333336,950,-17.958333333333332,1200,-19C1450,-20.041666666666668,1550,29.958333333333332,1800,31C2050,32.041666666666664,2222.9166666666665,-90.875,2400,-14C2577.0833333333335,62.875,3254.1666666666665,209.58333333333331,2650,400C2045.8333333333335,590.4166666666667,156.25,795.8333333333334,-500,900" transform="matrix(1,0,0,1,0,64)" opacity="0.05"></path><path d="M-10,10C117.08333333333334,15.416666666666666,347.9166666666667,42.041666666666664,600,36C852.0833333333333,29.958333333333336,950,-17.958333333333332,1200,-19C1450,-20.041666666666668,1550,29.958333333333332,1800,31C2050,32.041666666666664,2222.9166666666665,-90.875,2400,-14C2577.0833333333335,62.875,3254.1666666666665,209.58333333333331,2650,400C2045.8333333333335,590.4166666666667,156.25,795.8333333333334,-500,900" transform="matrix(1,0,0,1,0,128)" opacity="0.53"></path><path d="M-10,10C117.08333333333334,15.416666666666666,347.9166666666667,42.041666666666664,600,36C852.0833333333333,29.958333333333336,950,-17.958333333333332,1200,-19C1450,-20.041666666666668,1550,29.958333333333332,1800,31C2050,32.041666666666664,2222.9166666666665,-90.875,2400,-14C2577.0833333333335,62.875,3254.1666666666665,209.58333333333331,2650,400C2045.8333333333335,590.4166666666667,156.25,795.8333333333334,-500,900" transform="matrix(1,0,0,1,0,192)" opacity="1.00"></path></g></svg>